<svg width="55" height="79" viewBox="0 0 55 79" fill="none" xmlns="http://www.w3.org/2000/svg">
<path fill-rule="evenodd" clip-rule="evenodd" d="M39.1342 1.61467C35.572 0.538222 31.6015 0 27.2228 0C22.2864 0 17.7728 0.814303 13.6819 2.44291C9.59097 4.04646 6.30461 6.48938 3.8228 9.77165C3.6601 9.98518 3.50245 10.2025 3.34983 10.4235L39.1342 1.61467ZM1.7928 13.185C1.47718 13.883 1.20069 14.6103 0.963332 15.3669L45.5538 4.39022C44.7406 3.90421 43.8805 3.45671 42.9736 3.04771L1.7928 13.185ZM17.4455 53.6689V54.9467H32.95V53.6689C32.9773 51.2134 33.3182 49.1464 33.9728 47.4677C34.6546 45.7889 35.6773 44.3107 37.0409 43.0328C38.4318 41.755 40.2046 40.5273 42.3591 39.3497C44.9227 37.9466 47.1455 36.3806 49.0273 34.6518C50.9091 32.8979 52.3682 30.8934 53.4045 28.6384C54.4682 26.3584 55 23.7526 55 20.8211C55 16.628 53.9151 13.0192 51.7452 9.99473L33.3797 14.5157C34.3357 15.1378 35.1334 15.9117 35.7728 16.8373C36.6728 18.1402 37.1228 19.656 37.1228 21.3849C37.1228 23.0135 36.7273 24.4918 35.9364 25.8197C35.1455 27.1226 34.0818 28.3127 32.7455 29.3901C31.4091 30.4675 29.8955 31.5073 28.2046 32.5095C25.9409 33.8124 24.0046 35.2656 22.3955 36.8692C20.7864 38.4727 19.5591 40.5774 18.7137 43.1832C17.8955 45.7889 17.4728 49.2842 17.4455 53.6689ZM48.0822 6.14599C48.8075 6.73003 49.4837 7.35431 50.111 8.01884L29.7314 13.0356C28.9079 12.8641 28.0444 12.7783 27.1409 12.7783C25.3682 12.7783 23.691 13.1416 22.1091 13.8682C21.1428 14.2968 20.2834 14.8563 19.5308 15.5466L0 20.3544C0.0752294 19.5089 0.186937 18.6907 0.335124 17.8997L48.0822 6.14599ZM2.26884 22.1741L17.3974 18.45C16.9124 19.5348 16.6421 20.7761 16.5864 22.1741H2.26884ZM18.5501 76.3692C20.4864 78.1231 22.8182 79 25.5455 79C27.2909 79 28.9 78.5991 30.3728 77.7973C31.8455 76.9705 33.0318 75.8806 33.9318 74.5276C34.8591 73.1495 35.3364 71.6337 35.3637 69.98C35.3364 67.5246 34.3409 65.4199 32.3773 63.666C30.4137 61.9122 28.1364 61.0352 25.5455 61.0352C22.8182 61.0352 20.4864 61.9122 18.5501 63.666C16.641 65.4199 15.7001 67.5246 15.7273 69.98C15.7001 72.4605 16.641 74.5902 18.5501 76.3692Z" fill="url(#paint0_linear_402_7)"/>
<defs>
<linearGradient id="paint0_linear_402_7" x1="44.4085" y1="0.241526" x2="21.1497" y2="77.1648" gradientUnits="userSpaceOnUse">
<stop offset="0.205503" stop-color="#5D2EDF"/>
<stop offset="1" stop-color="#2599FF"/>
</linearGradient>
</defs>
</svg>
